<?xml version="1.0" encoding="UTF-8"?>
<svg xmlns="http://www.w3.org/2000/svg" xmlns:xlink="http://www.w3.org/1999/xlink" width="14px" height="12px" viewBox="0 0 14 12" version="1.1" id="navigation-and-search">
    <title>􀏚</title>
    <g id="Design-Spec" stroke="none" stroke-width="1" fill="none" fill-rule="evenodd">
        <g id="Taxonomy-and-Icons-Filled---04/28/22" transform="translate(-652.000000, -61.000000)" fill="#86868B" fill-rule="nonzero">
            <g id="􀏚" transform="translate(652.091797, 61.384766)">
                <path d="M1.83984375,10.7871094 L11.9765625,10.7871094 C12.59375,10.7871094 13.0546875,10.6357422 13.359375,10.3330078 C13.6640625,10.0302734 13.8164062,9.57617188 13.8164062,8.97070312 L13.8164062,1.81640625 C13.8164062,1.2109375 13.6640625,0.756835938 13.359375,0.454101562 C13.0546875,0.151367188 12.59375,0 11.9765625,0 L1.83984375,0 C1.2265625,0 0.766601562,0.151367188 0.459960938,0.454101562 C0.153320312,0.756835938 0,1.2109375 0,1.81640625 L0,8.97070312 C0,9.57617188 0.153320312,10.0302734 0.459960938,10.3330078 C0.766601562,10.6357422 1.2265625,10.7871094 1.83984375,10.7871094 Z M1.8515625,9.84375 C1.55859375,9.84375 1.33398438,9.76660156 1.17773438,9.61230469 C1.02148438,9.45800781 0.943359375,9.22851562 0.943359375,8.92382812 L0.943359375,1.86328125 C0.943359375,1.55859375 1.02148438,1.32910156 1.17773438,1.17480469 C1.33398438,1.02050781 1.55859375,0.943359375 1.8515625,0.943359375 L11.9648438,0.943359375 C12.2539062,0.943359375 12.4775391,1.02050781 12.6357422,1.17480469 C12.7939453,1.32910156 12.8730469,1.55859375 12.8730469,1.86328125 L12.8730469,8.92382812 C12.8730469,9.22851562 12.7939453,9.45800781 12.6357422,9.61230469 C12.4775391,9.76660156 12.2539062,9.84375 11.9648438,9.84375 L1.8515625,9.84375 Z M4.46484375,10.0253906 L5.38476562,10.0253906 L5.38476562,0.767578125 L4.46484375,0.767578125 L4.46484375,10.0253906 Z M3.33984375,3.1171875 C3.42578125,3.1171875 3.50292969,3.08300781 3.57128906,3.01464844 C3.63964844,2.94628906 3.67382812,2.87109375 3.67382812,2.7890625 C3.67382812,2.69921875 3.63964844,2.62207031 3.57128906,2.55761719 C3.50292969,2.49316406 3.42578125,2.4609375 3.33984375,2.4609375 L2.08007812,2.4609375 C1.99414062,2.4609375 1.91796875,2.49316406 1.8515625,2.55761719 C1.78515625,2.62207031 1.75195312,2.69921875 1.75195312,2.7890625 C1.75195312,2.87109375 1.78515625,2.94628906 1.8515625,3.01464844 C1.91796875,3.08300781 1.99414062,3.1171875 2.08007812,3.1171875 L3.33984375,3.1171875 Z M3.33984375,4.63476562 C3.42578125,4.63476562 3.50292969,4.6015625 3.57128906,4.53515625 C3.63964844,4.46875 3.67382812,4.390625 3.67382812,4.30078125 C3.67382812,4.21484375 3.63964844,4.13964844 3.57128906,4.07519531 C3.50292969,4.01074219 3.42578125,3.97851562 3.33984375,3.97851562 L2.08007812,3.97851562 C1.99414062,3.97851562 1.91796875,4.01074219 1.8515625,4.07519531 C1.78515625,4.13964844 1.75195312,4.21484375 1.75195312,4.30078125 C1.75195312,4.390625 1.78515625,4.46875 1.8515625,4.53515625 C1.91796875,4.6015625 1.99414062,4.63476562 2.08007812,4.63476562 L3.33984375,4.63476562 Z M3.33984375,6.14648438 C3.42578125,6.14648438 3.50292969,6.11425781 3.57128906,6.04980469 C3.63964844,5.98535156 3.67382812,5.91015625 3.67382812,5.82421875 C3.67382812,5.734375 3.63964844,5.65722656 3.57128906,5.59277344 C3.50292969,5.52832031 3.42578125,5.49609375 3.33984375,5.49609375 L2.08007812,5.49609375 C1.99414062,5.49609375 1.91796875,5.52832031 1.8515625,5.59277344 C1.78515625,5.65722656 1.75195312,5.734375 1.75195312,5.82421875 C1.75195312,5.91015625 1.78515625,5.98535156 1.8515625,6.04980469 C1.91796875,6.11425781 1.99414062,6.14648438 2.08007812,6.14648438 L3.33984375,6.14648438 Z" id="Shape"/>
            </g>
        </g>
    </g>
</svg>
